<?xml version="1.0" encoding="utf-8"?>
<!-- Generator: Adobe Illustrator 19.0.0, SVG Export Plug-In . SVG Version: 6.00 Build 0)  -->
<svg version="1.1" id="Layer_1" xmlns="http://www.w3.org/2000/svg" xmlns:xlink="http://www.w3.org/1999/xlink" x="0px" y="0px"
	 viewBox="0 0 243.7 60.8" style="enable-background:new 0 0 243.7 60.8;" xml:space="preserve">
<style type="text/css">
	.st0{fill:#4B4D4C;}
	.st1{fill:#F15F22;}
	.st2{fill:none;stroke:#4B4D4C;stroke-width:1.4;stroke-miterlimit:10;}
</style>
<g id="XMLID_81_">
	<g id="XMLID_118_">
		<polygon id="XMLID_121_" class="st0" points="175.7,32 177.4,28.4 171.2,28.4 172.9,32 		"/>
		<polygon id="XMLID_120_" class="st0" points="174.9,28.1 179.7,25 180,24.2 181.1,26.8 177,32 		"/>
		<polygon id="XMLID_119_" class="st0" points="173.7,28.1 168.9,25 168.6,24.2 167.6,26.8 171.6,32 		"/>
	</g>
	<g id="XMLID_87_">
		<path id="XMLID_116_" class="st1" d="M7.2,38.9C4.7,38,2.8,37,1.4,35.7l1.9-3.9c1.3,1.2,3,2.2,5.1,2.9c2.1,0.8,4.2,1.1,6.4,1.1
			c2.9,0,5.1-0.5,6.5-1.5c1.4-1,2.2-2.3,2.2-3.9c0-1.2-0.4-2.2-1.2-2.9c-0.8-0.8-1.8-1.3-2.9-1.7c-1.2-0.4-2.8-0.9-4.9-1.4
			c-2.6-0.6-4.8-1.3-6.4-1.9c-1.6-0.6-3-1.6-4.2-2.9c-1.2-1.3-1.7-3.1-1.7-5.3c0-1.9,0.5-3.6,1.5-5.1c1-1.5,2.5-2.7,4.5-3.6
			c2-0.9,4.5-1.4,7.5-1.4c2.1,0,4.1,0.3,6.1,0.8c2,0.5,3.7,1.3,5.2,2.3l-1.7,4c-1.5-0.9-3-1.6-4.7-2.1c-1.7-0.5-3.3-0.7-4.9-0.7
			c-2.8,0-5,0.5-6.4,1.6c-1.4,1-2.1,2.4-2.1,4c0,1.2,0.4,2.2,1.2,2.9c0.8,0.8,1.8,1.3,3,1.8c1.2,0.4,2.8,0.9,4.8,1.3
			c2.6,0.6,4.8,1.3,6.4,1.9c1.6,0.6,3,1.6,4.1,2.9c1.2,1.3,1.7,3.1,1.7,5.3c0,1.8-0.5,3.5-1.5,5c-1,1.5-2.5,2.7-4.6,3.6
			c-2,0.9-4.5,1.3-7.5,1.3C12.2,40.1,9.6,39.7,7.2,38.9z"/>
		<path id="XMLID_114_" class="st1" d="M47.1,38.1c-0.7,0.6-1.6,1.1-2.6,1.4c-1,0.3-2.1,0.5-3.2,0.5c-2.7,0-4.7-0.7-6.2-2.2
			c-1.5-1.4-2.2-3.5-2.2-6.2V17.1h-4.5v-4h4.5V7.3h4.8v5.8h7.6v4h-7.6v14.4c0,1.4,0.4,2.5,1.1,3.3c0.7,0.8,1.7,1.2,3.1,1.2
			c1.5,0,2.7-0.4,3.8-1.3L47.1,38.1z"/>
		<path id="XMLID_112_" class="st1" d="M74.9,13.2v26.5h-4.6v-4c-1,1.4-2.2,2.4-3.8,3.2c-1.6,0.8-3.3,1.1-5.2,1.1
			c-3.5,0-6.3-1-8.4-2.9c-2-2-3.1-4.8-3.1-8.6V13.2h4.8v14.7c0,2.6,0.6,4.5,1.9,5.8c1.2,1.3,3,2,5.3,2c2.5,0,4.5-0.8,6-2.3
			c1.5-1.5,2.2-3.7,2.2-6.5V13.2H74.9z"/>
		<path id="XMLID_109_" class="st1" d="M106.3,2.5v37.1h-4.6v-4.2c-1.1,1.5-2.4,2.6-4.1,3.4C96,39.6,94.2,40,92.3,40
			c-2.6,0-4.9-0.6-6.9-1.7c-2-1.1-3.6-2.7-4.8-4.8s-1.7-4.4-1.7-7.1s0.6-5,1.7-7.1c1.2-2,2.7-3.6,4.8-4.8c2-1.1,4.3-1.7,6.9-1.7
			c1.9,0,3.7,0.4,5.3,1.1c1.6,0.7,2.9,1.8,4,3.2V2.5H106.3z M97.2,34.6c1.4-0.8,2.4-1.9,3.2-3.3c0.8-1.4,1.2-3,1.2-4.9
			c0-1.8-0.4-3.5-1.2-4.9c-0.8-1.4-1.8-2.5-3.2-3.3c-1.4-0.8-2.9-1.2-4.6-1.2c-1.7,0-3.2,0.4-4.6,1.2c-1.4,0.8-2.4,1.9-3.2,3.3
			c-0.8,1.4-1.2,3-1.2,4.9c0,1.8,0.4,3.5,1.2,4.9c0.8,1.4,1.9,2.5,3.2,3.3c1.4,0.8,2.9,1.2,4.6,1.2C94.3,35.8,95.9,35.4,97.2,34.6z"
			/>
		<path id="XMLID_106_" class="st1" d="M112.8,7.1c-0.6-0.6-0.9-1.3-0.9-2.2s0.3-1.6,0.9-2.2c0.6-0.6,1.4-0.9,2.3-0.9
			c0.9,0,1.7,0.3,2.3,0.9c0.6,0.6,0.9,1.3,0.9,2.2c0,0.9-0.3,1.7-0.9,2.3C116.8,7.7,116,8,115.1,8C114.2,8,113.4,7.7,112.8,7.1z
			 M112.7,13.2h4.8v26.5h-4.8V13.2z"/>
		<path id="XMLID_103_" class="st1" d="M147.8,28h-21.5c0.3,2.3,1.3,4.2,3.1,5.6c1.8,1.4,3.9,2.1,6.5,2.1c3.2,0,5.7-1.1,7.7-3.2
			l2.7,3.1c-1.2,1.4-2.7,2.5-4.5,3.2c-1.8,0.7-3.8,1.1-6,1.1c-2.8,0-5.3-0.6-7.5-1.7c-2.2-1.2-3.8-2.8-5-4.8c-1.2-2.1-1.8-4.4-1.8-7
			c0-2.6,0.6-4.9,1.7-7c1.2-2.1,2.7-3.7,4.8-4.8c2-1.2,4.3-1.7,6.8-1.7c2.5,0,4.8,0.6,6.8,1.7c2,1.2,3.5,2.8,4.7,4.8
			c1.1,2.1,1.7,4.4,1.7,7.1C147.9,26.9,147.8,27.4,147.8,28z M129,19.1c-1.6,1.4-2.5,3.2-2.7,5.5h17c-0.3-2.2-1.2-4.1-2.7-5.5
			c-1.6-1.4-3.5-2.1-5.8-2.1S130.5,17.7,129,19.1z"/>
		<path id="XMLID_100_" class="st0" d="M145.1,49.3c-1-0.3-1.8-0.7-2.5-1.2l1.6-3.7c1,0.8,2.3,1.3,3.9,1.3c1.3,0,2.2-0.4,2.9-1.2
			c0.7-0.8,1-1.9,1-3.5V13.2h4.8v27.7c0,2.7-0.7,4.9-2.2,6.5c-1.5,1.6-3.6,2.4-6.3,2.4C147.2,49.7,146.1,49.6,145.1,49.3z
			 M152.1,7.1c-0.6-0.6-0.9-1.3-0.9-2.2s0.3-1.6,0.9-2.2c0.6-0.6,1.4-0.9,2.3-0.9c0.9,0,1.7,0.3,2.3,0.9c0.6,0.6,0.9,1.3,0.9,2.2
			c0,0.9-0.3,1.7-0.9,2.3c-0.6,0.6-1.4,0.9-2.3,0.9C153.5,8,152.7,7.7,152.1,7.1z"/>
		<path id="XMLID_97_" class="st0" d="M167.6,38.2c-2-1.2-3.6-2.7-4.8-4.8c-1.2-2-1.8-4.3-1.8-6.9c0-2.6,0.6-4.9,1.8-6.9
			c1.2-2,2.8-3.6,4.8-4.8c2-1.1,4.3-1.7,6.9-1.7c2.5,0,4.8,0.6,6.9,1.7c2,1.1,3.6,2.7,4.8,4.8c1.2,2,1.7,4.3,1.7,6.9
			c0,2.6-0.6,4.9-1.7,6.9c-1.2,2-2.7,3.6-4.8,4.8c-2,1.2-4.3,1.7-6.9,1.7C171.9,39.9,169.6,39.4,167.6,38.2z M179.4,35.5
			c1.5-0.9,2.6-2.1,3.5-3.6c0.8-1.6,1.3-3.4,1.3-5.4c0-2-0.4-3.8-1.3-5.4c-0.8-1.6-2-2.8-3.5-3.6c-1.5-0.9-3.2-1.3-5-1.3
			c-1.9,0-3.5,0.4-5,1.3c-1.5,0.9-2.7,2.1-3.5,3.6c-0.9,1.6-1.3,3.4-1.3,5.4c0,2,0.4,3.8,1.3,5.4c0.9,1.6,2,2.8,3.5,3.6
			c1.5,0.9,3.2,1.3,5,1.3C176.3,36.8,178,36.4,179.4,35.5z"/>
		<path id="XMLID_94_" class="st0" d="M212.9,14.6c2,1.1,3.6,2.7,4.8,4.8c1.2,2,1.7,4.4,1.7,7.1s-0.6,5-1.7,7.1
			c-1.2,2.1-2.7,3.6-4.8,4.8c-2,1.1-4.3,1.7-6.9,1.7c-2,0-3.8-0.4-5.4-1.2c-1.6-0.8-3-1.9-4.1-3.4v4.2h-4.6V2.5h4.8v14.6
			c1.1-1.4,2.4-2.5,4-3.2c1.6-0.7,3.4-1.1,5.3-1.1C208.5,12.9,210.8,13.5,212.9,14.6z M210.1,34.6c1.4-0.8,2.4-1.9,3.2-3.3
			c0.8-1.4,1.2-3,1.2-4.9c0-1.8-0.4-3.5-1.2-4.9c-0.8-1.4-1.9-2.5-3.2-3.3c-1.4-0.8-2.9-1.2-4.6-1.2c-1.7,0-3.2,0.4-4.6,1.2
			c-1.4,0.8-2.4,1.9-3.2,3.3c-0.8,1.4-1.2,3-1.2,4.9c0,1.8,0.4,3.5,1.2,4.9c0.8,1.4,1.8,2.5,3.2,3.3c1.4,0.8,2.9,1.2,4.6,1.2
			C207.2,35.8,208.8,35.4,210.1,34.6z"/>
		<path id="XMLID_88_" class="st0" d="M224.6,39.1c-2-0.6-3.6-1.3-4.7-2.2l2-3.8c1.2,0.8,2.6,1.5,4.3,2c1.7,0.5,3.4,0.8,5.1,0.8
			c4.2,0,6.3-1.2,6.3-3.6c0-0.8-0.3-1.4-0.9-1.9c-0.6-0.5-1.3-0.8-2.1-1c-0.9-0.2-2.1-0.5-3.6-0.7c-2.1-0.3-3.9-0.7-5.2-1.2
			c-1.4-0.4-2.5-1.2-3.5-2.2c-1-1-1.5-2.5-1.5-4.4c0-2.4,1-4.3,3-5.8c2-1.5,4.7-2.2,8.1-2.2c1.8,0,3.5,0.2,5.3,0.7
			c1.8,0.4,3.2,1,4.4,1.8l-2.1,3.8c-2.2-1.4-4.7-2.1-7.7-2.1c-2,0-3.6,0.3-4.7,1c-1.1,0.7-1.6,1.6-1.6,2.7c0,0.9,0.3,1.6,0.9,2.1
			c0.6,0.5,1.3,0.9,2.2,1.1c0.9,0.2,2.1,0.5,3.7,0.8c2.1,0.4,3.9,0.8,5.2,1.2c1.3,0.4,2.4,1.1,3.4,2.1c0.9,1,1.4,2.4,1.4,4.2
			c0,2.4-1,4.3-3.1,5.7c-2.1,1.4-4.8,2.1-8.4,2.1C228.7,40,226.6,39.7,224.6,39.1z"/>
	</g>
	<path id="XMLID_86_" class="st2" d="M166.8,22.5c2.1-4.3,5.5-4.7,5.5-4.7"/>
	<g id="XMLID_47_">
		<path id="XMLID_84_" class="st0" d="M176.1,36.1l-0.4-4.3h-2.9l-0.4,4.3c0.6,0.1,1.2,0.2,1.8,0.2C175,36.3,175.6,36.2,176.1,36.1z
			"/>
		<path id="XMLID_48_" class="st0" d="M174.3,40.5c-0.8,0-1.5-0.1-2.2-0.2l-1.3,14.7l3.5,3.9l3.5-3.9l-1.3-14.7
			C175.8,40.4,175.1,40.5,174.3,40.5z"/>
	</g>
</g>
</svg>
